<svg width="81" height="65" viewBox="0 0 81 65" fill="none" xmlns="http://www.w3.org/2000/svg">
<path d="M78 23.3389H67.5C66.3954 23.3389 65.5 22.4435 65.5 21.3389V17.6855C65.5 16.8207 66.0559 16.0538 66.8778 15.7848L76.8666 12.5151C79.3323 11.708 81 9.40736 81 6.81282V4C81 1.79086 79.2091 0 77 0H67.5489C66.2206 0 64.9299 0.440771 63.879 1.25322L52.267 10.2308C47.3682 14.0183 44.5 19.8612 44.5 26.0534V59.9283C44.5 62.1375 46.2909 63.9283 48.5 63.9283H73C77.4183 63.9283 81 60.3466 81 55.9283V26.3389C81 24.6821 79.6569 23.3389 78 23.3389Z" fill="#76FF1A"/>
<path d="M33.5 23.8465H23C21.8954 23.8465 21 22.951 21 21.8465V18.1931C21 17.3282 21.5559 16.5614 22.3778 16.2923L32.3666 13.0227C34.8323 12.2155 36.5 9.91493 36.5 7.32039V4.50757C36.5 2.29843 34.7091 0.507568 32.5 0.507568H23.0489C21.7206 0.507568 20.4299 0.94834 19.379 1.76079L7.76705 10.7384C2.86822 14.5258 0 20.3688 0 26.561V60.4359C0 62.645 1.79086 64.4359 4 64.4359H28.5C32.9183 64.4359 36.5 60.8542 36.5 56.4359V26.8465C36.5 25.1896 35.1569 23.8465 33.5 23.8465Z" fill="#76FF1A"/>
</svg>
