<svg width="137" height="47" viewBox="0 0 137 47" fill="none" xmlns="http://www.w3.org/2000/svg">
<g clipPath="url(#clip0_93_406)">
<path d="M135.163 17.6135C135.163 17.0899 134.795 16.7409 134.19 16.7409L133 16.7627L133.022 19.4242H133.671V18.5079H134.06L134.622 19.4242H135.379L134.709 18.3988C134.848 18.3212 134.963 18.2073 135.043 18.0691C135.123 17.9309 135.164 17.7735 135.163 17.6135ZM134.06 17.9625H133.649V17.2862H134.125C134.211 17.2768 134.297 17.301 134.365 17.3538C134.434 17.4066 134.479 17.484 134.493 17.5699V17.5917C134.491 17.6456 134.478 17.6986 134.455 17.7472C134.432 17.7958 134.399 17.839 134.358 17.8739C134.317 17.9088 134.27 17.9348 134.218 17.9501C134.167 17.9653 134.113 17.9696 134.06 17.9625ZM38.1268 29.9175C37.0238 29.9175 36.2669 29.0449 36.2669 27.7577V21.8893H40.8084V17.7444H36.2778L36.2345 12.9886H31.2172L31.2605 28.8267C31.2605 32.0336 33.3799 34.2152 36.494 34.2152C38.1376 34.2152 39.6947 33.9752 40.9274 33.408V29.3721C40.052 29.7819 39.0904 29.9692 38.1268 29.9175ZM50.1076 17.4826C45.4364 17.4826 41.8465 21.1476 41.8465 26.0125C41.8465 30.8338 45.4364 34.1934 50.3888 34.1934C53.1785 34.1934 55.7953 33.1898 57.3956 31.1174L53.5462 29.3503C52.7676 30.0702 51.5782 30.3538 50.5185 30.3538C48.7884 30.3538 47.0583 29.4594 46.8205 27.6269H58.3039C58.4765 26.9721 58.5637 26.2974 58.5634 25.6198C58.5634 20.624 54.9519 17.4826 50.1184 17.4826H50.1076ZM46.8205 24.42C46.9718 22.2384 48.5289 21.2349 50.2374 21.2349C52.1621 21.2349 53.6111 22.3257 53.6111 24.2018V24.42H46.8205ZM26.4487 29.9175C25.3458 29.9175 24.5889 29.0449 24.5889 27.7577V21.8893H29.1303V17.7444H24.5997L24.5564 12.9886H19.5392L19.5824 28.8267C19.5824 32.0336 21.7018 34.2152 24.8159 34.2152C26.4595 34.2152 28.0166 33.9752 29.2493 33.408V29.3721C28.3745 29.7839 27.4125 29.9712 26.4487 29.9175ZM8.82344 17.4826C4.51985 17.4826 0 20.3404 0 26.0998C0 30.8992 3.20066 34.2588 7.24474 34.2588C9.55873 34.2588 11.3104 33.3207 12.4566 31.6628L12.608 33.9752H17.4631V26.2961C17.4631 20.4495 13.1919 17.4826 8.82344 17.4826ZM8.82344 29.8302C6.63921 29.8302 5.0605 28.1941 5.0605 25.8816C5.0605 23.5692 6.61758 21.933 8.82344 21.933C10.8563 21.933 12.5431 23.7219 12.5431 25.8816C12.5431 28.0414 10.8563 29.8302 8.82344 29.8302ZM133.952 15.541C132.373 15.5628 131.357 16.5882 131.378 18.1152C131.4 19.6423 132.438 20.6459 134.017 20.624C135.552 20.6022 136.59 19.5769 136.569 18.028C136.547 16.4791 135.509 15.5192 133.952 15.541ZM134.017 20.1877C132.784 20.2095 131.941 19.3806 131.941 18.1152C131.941 16.8499 132.741 15.9991 133.974 15.9773C135.206 15.9555 136.028 16.7845 136.05 18.0716C136.05 19.3151 135.228 20.1659 134.028 20.1877H134.017ZM109.428 17.7662L105.925 28.0195L102.378 17.7662H96.9281L103.459 33.9534H108.347L114.878 17.7662H109.428ZM122.425 17.4826C117.754 17.4826 114.164 21.1476 114.164 26.0125C114.164 30.8338 117.754 34.1934 122.706 34.1934C125.496 34.1934 128.113 33.1898 129.713 31.1174L125.864 29.3503C125.085 30.0702 123.896 30.3538 122.836 30.3538C121.106 30.3538 119.376 29.4594 119.138 27.6269H130.622C130.794 26.9721 130.881 26.2974 130.881 25.6198C130.881 20.624 127.269 17.4826 122.425 17.4826ZM125.929 24.42H119.138C119.289 22.2384 120.847 21.2349 122.555 21.2349C124.48 21.2349 125.929 22.3257 125.929 24.2018V24.42ZM93.057 10.6543C91.2837 10.6543 89.9429 11.8542 89.9429 13.534C89.9429 15.2138 91.2837 16.4573 93.057 16.4573C94.8304 16.4573 96.1712 15.2356 96.1712 13.534C96.1712 11.8323 94.852 10.6543 93.057 10.6543ZM70.2848 17.4608C69.2708 17.4443 68.2698 17.6927 67.3793 18.1821C66.4887 18.6714 65.7389 19.3849 65.2026 20.2532L65.0296 17.7662H60.1854V33.9534H65.2026V25.4671C65.3108 23.4383 66.9327 21.8893 68.7061 21.8893C70.6957 21.8893 71.604 23.3946 71.604 25.2926V33.9316H76.5996V24.5072C76.5996 20.4059 74.1234 17.4608 70.2848 17.4608ZM85.596 29.9175C84.4931 29.9175 83.7362 29.0449 83.7362 27.7577V21.8893H88.2777V17.7444H83.7362L83.6929 12.9886H78.6757L78.7189 28.8267C78.7189 32.0336 80.8383 34.2152 83.9524 34.2152C85.596 34.2152 87.1531 33.9752 88.3858 33.408V29.3721C87.5143 29.7821 86.5562 29.9694 85.596 29.9175ZM90.5268 17.7662V33.9534H95.5873V17.7662C94.8371 18.2677 93.957 18.5352 93.057 18.5352C92.157 18.5352 91.277 18.2677 90.5268 17.7662Z" fill="#494949"/>
</g>
<defs>
<clipPath id="clip0_93_406">
<rect width="136.569" height="46.4916" fill="white"/>
</clipPath>
</defs>
</svg>
