<svg width="155" height="47" viewBox="0 0 155 47" fill="none" xmlns="http://www.w3.org/2000/svg">
<path d="M21.3086 1.93726C9.54016 1.93726 0 11.4775 0 23.2459C0 35.0143 9.54016 44.5545 21.3086 44.5545C31.8671 44.5545 40.6319 36.8753 42.3227 26.7973H42.1697C40.5927 32.9244 35.0308 37.4517 28.4115 37.4517C20.5659 37.4517 14.2058 31.0915 14.2058 23.2459C14.2058 15.4003 20.5659 9.04014 28.4115 9.04014C35.0308 9.04014 40.5927 13.5674 42.1697 19.6945H42.3227C40.6319 9.61649 31.8671 1.93726 21.3086 1.93726Z" fill="#494949"/>
<path d="M0 23.2459C0 11.4775 9.5402 1.93726 21.3086 1.93726C31.8671 1.93726 40.6319 9.61649 42.3227 19.6945H27.964C26.387 13.5674 20.8251 9.04014 14.2058 9.04014C6.36014 9.04014 0 15.4003 0 23.2459Z" fill="#494949"/>
<path d="M0 23.2458C0 35.0142 9.5402 44.5544 21.3086 44.5544C31.8671 44.5544 40.6319 36.8752 42.3227 26.7972H27.964C26.387 32.9243 20.8251 37.4516 14.2058 37.4516C6.36014 37.4516 0 31.0914 0 23.2458Z" fill="#494949"/>
<path d="M73.067 19.863C72.4603 15.481 69.0895 12.9385 64.7172 12.9385C59.5648 12.9385 55.6836 16.6945 55.6836 23.07C55.6836 29.4359 59.5166 33.2015 64.7172 33.2015C69.4074 33.2015 72.5181 30.1678 73.067 26.4022L69.4651 26.383C69.0125 28.6943 67.1249 29.9945 64.7654 29.9945C61.568 29.9945 59.2758 27.5964 59.2758 23.07C59.2758 18.6206 61.5487 16.1455 64.775 16.1455C67.173 16.1455 69.051 17.5034 69.4651 19.863H73.067Z" fill="#494949"/>
<path d="M80.4417 33.2304C82.7627 33.2304 84.1496 32.1421 84.7852 30.8998H84.9008V32.9318H88.2523V23.0315C88.2523 19.1214 85.0645 17.9464 82.2427 17.9464C79.132 17.9464 76.7435 19.3333 75.9731 22.0299L79.2283 22.4921C79.575 21.4809 80.5573 20.6142 82.2619 20.6142C83.8799 20.6142 84.7659 21.4424 84.7659 22.8966V22.9544C84.7659 23.956 83.7162 24.0042 81.1063 24.2835C78.2363 24.5916 75.4916 25.4488 75.4916 28.781C75.4916 31.6895 77.6199 33.2304 80.4417 33.2304ZM81.347 30.6686C79.8928 30.6686 78.8527 30.0041 78.8527 28.7232C78.8527 27.3845 80.018 26.826 81.5782 26.6045C82.4931 26.4793 84.3229 26.2481 84.7756 25.8822V27.6253C84.7756 29.2722 83.4465 30.6686 81.347 30.6686Z" fill="#494949"/>
<path d="M99.1446 18.1391H96.2265V14.595H92.7402V18.1391H90.6407V20.8357H92.7402V29.0603C92.7209 31.8436 94.7433 33.2111 97.3629 33.1341C98.3549 33.1052 99.0386 32.9126 99.4142 32.7874L98.8268 30.0619C98.6342 30.11 98.2393 30.1967 97.8059 30.1967C96.9295 30.1967 96.2265 29.8885 96.2265 28.4825V20.8357H99.1446V18.1391Z" fill="#494949"/>
<path d="M106.317 33.2304C108.638 33.2304 110.025 32.1421 110.661 30.8998H110.776V32.9318H114.128V23.0315C114.128 19.1214 110.94 17.9464 108.118 17.9464C105.007 17.9464 102.619 19.3333 101.848 22.0299L105.104 22.4921C105.45 21.4809 106.433 20.6142 108.137 20.6142C109.755 20.6142 110.641 21.4424 110.641 22.8966V22.9544C110.641 23.956 109.591 24.0042 106.982 24.2835C104.112 24.5916 101.367 25.4488 101.367 28.781C101.367 31.6895 103.495 33.2304 106.317 33.2304ZM107.222 30.6686C105.768 30.6686 104.728 30.0041 104.728 28.7232C104.728 27.3845 105.893 26.826 107.453 26.6045C108.368 26.4793 110.198 26.2481 110.651 25.8822V27.6253C110.651 29.2722 109.322 30.6686 107.222 30.6686Z" fill="#494949"/>
<path d="M121.119 13.2081H117.633V32.9318H121.119V13.2081Z" fill="#494949"/>
<path d="M131.157 33.2208C135.491 33.2208 138.245 30.1678 138.245 25.5932C138.245 21.009 135.491 17.9464 131.157 17.9464C126.823 17.9464 124.069 21.009 124.069 25.5932C124.069 30.1678 126.823 33.2208 131.157 33.2208ZM131.176 30.4279C128.778 30.4279 127.603 28.2898 127.603 25.5836C127.603 22.8774 128.778 20.7105 131.176 20.7105C133.536 20.7105 134.711 22.8774 134.711 25.5836C134.711 28.2898 133.536 30.4279 131.176 30.4279Z" fill="#494949"/>
<path d="M147.638 38.7873C151.634 38.7873 154.581 36.9575 154.581 33.1726V18.1391H151.143V20.5853H150.951C150.421 19.5163 149.313 17.9464 146.703 17.9464C143.285 17.9464 140.598 20.6238 140.598 25.4873C140.598 30.3123 143.285 32.72 146.694 32.72C149.227 32.72 150.411 31.362 150.951 30.2738H151.124V33.0763C151.124 35.2528 149.679 36.1485 147.695 36.1485C145.596 36.1485 144.671 35.1565 144.248 34.2898L141.108 35.0506C141.744 37.1212 143.872 38.7873 147.638 38.7873ZM147.667 29.9848C145.365 29.9848 144.151 28.1935 144.151 25.468C144.151 22.7811 145.346 20.8068 147.667 20.8068C149.91 20.8068 151.143 22.6655 151.143 25.468C151.143 28.2898 149.891 29.9848 147.667 29.9848Z" fill="#494949"/>
</svg>
