<svg width="142" height="47" viewBox="0 0 142 47" fill="none" xmlns="http://www.w3.org/2000/svg">
<path d="M12.8607 21.6168C13.6571 18.645 16.7119 15.5902 19.6837 14.7938L38.2116 9.82852C41.1834 9.03209 42.947 10.7956 42.1505 13.7675L37.1853 32.2953C36.3888 35.2672 33.3341 38.322 30.3622 39.1184L11.8344 44.0836C8.86252 44.8801 7.09899 43.1165 7.89541 40.1447L12.8607 21.6168Z" fill="#494949" fillOpacity="0.37"/>
<path d="M5.43295 14.1889C6.22937 11.217 9.28416 8.16223 12.256 7.36581L30.7839 2.40054C33.7557 1.60411 35.5192 3.36764 34.7228 6.33949L29.7576 24.8673C28.9611 27.8392 25.9063 30.894 22.9345 31.6904L4.40663 36.6557C1.43478 37.4521 -0.328748 35.6886 0.467677 32.7167L5.43295 14.1889Z" fill="#494949"/>
<path d="M59.3651 30.4364H65.7383V32.9315H56.2734V14.083H59.3651V30.4364Z" fill="#494949"/>
<path d="M67.2933 25.3921C67.2933 23.8914 67.6007 22.5626 68.2154 21.4054C68.8482 20.2483 69.698 19.3533 70.7647 18.7205C71.8495 18.0697 73.0428 17.7442 74.3445 17.7442C75.5197 17.7442 76.5413 17.9793 77.4091 18.4493C78.295 18.9013 79.0001 19.4709 79.5245 20.1579V17.9883H82.6433V32.9315H79.5245V30.7076C79.0001 31.4127 78.286 32.0003 77.382 32.4704C76.478 32.9405 75.4474 33.1756 74.2903 33.1756C73.0066 33.1756 71.8314 32.8501 70.7647 32.1992C69.698 31.5303 68.8482 30.6082 68.2154 29.433C67.6007 28.2397 67.2933 26.8927 67.2933 25.3921ZM79.5245 25.4463C79.5245 24.4158 79.3075 23.5208 78.8736 22.7614C78.4577 22.0021 77.9063 21.4235 77.2193 21.0258C76.5322 20.628 75.7909 20.4291 74.9954 20.4291C74.1999 20.4291 73.4586 20.628 72.7716 21.0258C72.0845 21.4054 71.524 21.975 71.0901 22.7343C70.6743 23.4756 70.4664 24.3615 70.4664 25.3921C70.4664 26.4226 70.6743 27.3267 71.0901 28.1041C71.524 28.8815 72.0845 29.4782 72.7716 29.894C73.4767 30.2918 74.218 30.4907 74.9954 30.4907C75.7909 30.4907 76.5322 30.2918 77.2193 29.894C77.9063 29.4963 78.4577 28.9177 78.8736 28.1583C79.3075 27.3809 79.5245 26.4769 79.5245 25.4463Z" fill="#494949"/>
<path d="M100.156 17.9883L90.9891 39.9556H87.7889L90.8263 32.6874L84.9413 17.9883H88.3855L92.5891 29.3787L96.9555 17.9883H100.156Z" fill="#494949"/>
<path d="M116.184 25.0938C116.184 25.6542 116.148 26.1605 116.076 26.6125H104.658C104.749 27.8058 105.192 28.764 105.987 29.4872C106.783 30.2104 107.759 30.572 108.916 30.572C110.58 30.572 111.755 29.8759 112.442 28.4838H115.778C115.326 29.8579 114.503 30.9879 113.31 31.8738C112.135 32.7416 110.67 33.1756 108.916 33.1756C107.488 33.1756 106.204 32.8591 105.065 32.2263C103.944 31.5755 103.058 30.6715 102.407 29.5143C101.775 28.3391 101.458 26.9831 101.458 25.4463C101.458 23.9095 101.766 22.5626 102.38 21.4054C103.013 20.2302 103.89 19.3262 105.011 18.6934C106.15 18.0606 107.452 17.7442 108.916 17.7442C110.327 17.7442 111.583 18.0516 112.686 18.6663C113.789 19.281 114.648 20.1489 115.262 21.2698C115.877 22.3727 116.184 23.6474 116.184 25.0938ZM112.957 24.1174C112.939 22.9784 112.532 22.0654 111.737 21.3783C110.941 20.6913 109.956 20.3477 108.781 20.3477C107.714 20.3477 106.801 20.6913 106.042 21.3783C105.282 22.0473 104.83 22.9603 104.686 24.1174H112.957Z" fill="#494949"/>
<path d="M122.319 20.1579C122.771 19.3985 123.367 18.8109 124.109 18.3951C124.868 17.9612 125.763 17.7442 126.794 17.7442V20.9444H126.007C124.796 20.9444 123.874 21.2518 123.241 21.8665C122.626 22.4812 122.319 23.5479 122.319 25.0666V32.9315H119.227V17.9883H122.319V20.1579Z" fill="#494949"/>
<path d="M135.059 33.1756C133.884 33.1756 132.827 32.9676 131.886 32.5518C130.964 32.1179 130.232 31.5393 129.69 30.8161C129.147 30.0748 128.858 29.2522 128.822 28.3482H132.022C132.076 28.981 132.375 29.5143 132.917 29.9483C133.477 30.3641 134.173 30.572 135.005 30.572C135.873 30.572 136.542 30.4093 137.012 30.0839C137.5 29.7403 137.744 29.3064 137.744 28.7821C137.744 28.2216 137.473 27.8058 136.931 27.5346C136.406 27.2634 135.566 26.9651 134.409 26.6396C133.288 26.3322 132.375 26.0339 131.669 25.7446C130.964 25.4554 130.35 25.0124 129.825 24.4158C129.319 23.8191 129.066 23.0326 129.066 22.0563C129.066 21.2608 129.301 20.5376 129.771 19.8867C130.241 19.2177 130.91 18.6934 131.778 18.3137C132.664 17.9341 133.676 17.7442 134.815 17.7442C136.515 17.7442 137.88 18.1781 138.91 19.046C139.959 19.8957 140.52 21.0619 140.592 22.5445H137.5C137.446 21.8755 137.175 21.3422 136.687 20.9444C136.198 20.5466 135.539 20.3477 134.707 20.3477C133.893 20.3477 133.269 20.5014 132.836 20.8088C132.402 21.1162 132.185 21.523 132.185 22.0292C132.185 22.427 132.329 22.7614 132.619 23.0326C132.908 23.3038 133.26 23.5208 133.676 23.6835C134.092 23.8282 134.707 24.018 135.52 24.253C136.605 24.5423 137.491 24.8406 138.178 25.148C138.883 25.4373 139.489 25.8712 139.995 26.4498C140.502 27.0283 140.764 27.7967 140.782 28.755C140.782 29.6047 140.547 30.3641 140.077 31.0331C139.607 31.702 138.938 32.2263 138.07 32.606C137.22 32.9857 136.217 33.1756 135.059 33.1756Z" fill="#494949"/>
</svg>
