<svg width="123" height="47" viewBox="0 0 123 47" fill="none" xmlns="http://www.w3.org/2000/svg">
<g clipPath="url(#clip0_93_401)">
<path d="M26.2974 11.5102C26.2729 11.3388 26.126 11.2409 26.0035 11.2409C25.8811 11.2409 23.4571 11.1919 23.4571 11.1919C23.4571 11.1919 21.4248 9.23307 21.2289 9.0127C21.033 8.81682 20.6412 8.86579 20.4943 8.91476C20.4943 8.91476 20.1026 9.03719 19.4659 9.23307C19.368 8.89028 19.1966 8.47402 18.9762 8.03329C18.2661 6.6621 17.1888 5.92754 15.9155 5.92754C15.8176 5.92754 15.7441 5.92754 15.6462 5.95202C15.5972 5.90305 15.5727 5.85408 15.5238 5.8296C14.9606 5.24195 14.2505 4.94812 13.3935 4.97261C11.753 5.02158 10.1125 6.22136 8.76579 8.32711C7.83534 9.82072 7.12526 11.6816 6.9049 13.1263C5.01952 13.7139 3.6973 14.1302 3.64833 14.1302C2.6934 14.424 2.66891 14.4485 2.54649 15.3544C2.49752 16.04 0 35.359 0 35.359L20.9595 38.9829L30.0436 36.7302C30.0192 36.7302 26.3219 11.6816 26.2974 11.5102ZM18.4131 9.57587C17.9233 9.72278 17.3847 9.89418 16.797 10.0901C16.797 9.25756 16.6746 8.08226 16.3073 7.10284C17.5561 7.29872 18.1682 8.71888 18.4131 9.57587ZM15.6952 10.4084C14.5933 10.7512 13.3935 11.1185 12.1938 11.4857C12.5365 10.188 13.1732 8.91476 13.9567 8.05777C14.2505 7.73946 14.6668 7.39666 15.132 7.20078C15.6217 8.15571 15.7197 9.50241 15.6952 10.4084ZM13.4425 6.07445C13.8343 6.07445 14.1526 6.14791 14.4219 6.34379C13.9812 6.56416 13.5405 6.90696 13.1487 7.34769C12.0958 8.47402 11.2878 10.2125 10.9695 11.902C9.96558 12.2203 8.98616 12.5141 8.10468 12.7835C8.69233 10.1145 10.9205 6.14791 13.4425 6.07445Z" fill="#494949"/>
<path d="M26.003 11.2412C25.8806 11.2412 23.4565 11.1923 23.4565 11.1923C23.4565 11.1923 21.4242 9.23342 21.2283 9.01305C21.1549 8.9396 21.0569 8.89062 20.959 8.89062V38.9832L30.0431 36.7306C30.0431 36.7306 26.3458 11.682 26.3213 11.5106C26.2723 11.3392 26.1254 11.2412 26.003 11.2412Z" fill="#494949"/>
<path d="M15.9149 15.9175L14.862 19.8597C14.862 19.8597 13.6867 19.321 12.291 19.4189C10.2343 19.5414 10.2343 20.8391 10.2343 21.1574C10.3567 22.9204 14.9844 23.3121 15.2538 27.4502C15.4497 30.7067 13.5398 32.9349 10.7485 33.1063C7.41844 33.2777 5.58203 31.3189 5.58203 31.3189L6.29211 28.3072C6.29211 28.3072 8.153 29.7028 9.62213 29.6049C10.5771 29.5559 10.9443 28.7479 10.8954 28.2092C10.7485 25.9076 6.9777 26.0545 6.73285 22.2593C6.53696 19.0761 8.61823 15.8686 13.2215 15.5747C15.0089 15.4523 15.9149 15.9175 15.9149 15.9175Z" fill="#D5D5D5"/>
<path d="M42.3354 24.3164C41.2825 23.7532 40.7438 23.2635 40.7438 22.6024C40.7438 21.7699 41.5029 21.2312 42.6782 21.2312C44.0494 21.2312 45.2736 21.7944 45.2736 21.7944L46.2286 18.8561C46.2286 18.8561 45.3471 18.1705 42.7516 18.1705C39.1278 18.1705 36.6058 20.2518 36.6058 23.1656C36.6058 24.8306 37.7811 26.0793 39.3482 26.9853C40.6214 27.6954 41.0621 28.2096 41.0621 28.9686C41.0621 29.7522 40.4255 30.3888 39.2502 30.3888C37.5118 30.3888 35.8467 29.4828 35.8467 29.4828L34.8184 32.4211C34.8184 32.4211 36.3365 33.4495 38.9074 33.4495C42.6292 33.4495 45.3226 31.613 45.3226 28.3075C45.2981 26.5201 43.9514 25.2468 42.3354 24.3164Z" fill="#494949"/>
<path d="M57.1737 18.1218C55.3372 18.1218 53.8926 19.0033 52.7908 20.3255L52.7418 20.301L54.3333 11.9759H50.1953L46.1552 33.1803H50.2932L51.6644 25.9326C52.2031 23.1903 53.6233 21.5008 54.9455 21.5008C55.8759 21.5008 56.2432 22.1374 56.2432 23.0434C56.2432 23.6065 56.1942 24.3166 56.0718 24.8798L54.5047 33.1803H58.6428L60.2588 24.6104C60.4302 23.7045 60.5526 22.6271 60.5526 21.8925C60.5771 19.5419 59.3529 18.1218 57.1737 18.1218Z" fill="#494949"/>
<path d="M69.9547 18.1214C64.9597 18.1214 61.6541 22.6267 61.6541 27.6463C61.6541 30.8539 63.6375 33.4493 67.3592 33.4493C72.2563 33.4493 75.5619 29.0664 75.5619 23.9245C75.5864 20.9617 73.8479 18.1214 69.9547 18.1214ZM67.9224 30.2907C66.5023 30.2907 65.9146 29.0909 65.9146 27.5728C65.9146 25.1977 67.1389 21.329 69.3915 21.329C70.8607 21.329 71.3504 22.6023 71.3504 23.8265C71.3504 26.373 70.1016 30.2907 67.9224 30.2907Z" fill="#494949"/>
<path d="M86.1891 18.1214C83.3978 18.1214 81.8062 20.5945 81.8062 20.5945H81.7572L82.0021 18.3663H78.3293C78.1579 19.8599 77.8151 22.1615 77.4968 23.8755L74.6075 39.0565H78.7455L79.8964 32.9106H79.9943C79.9943 32.9106 80.8513 33.4493 82.4184 33.4493C87.291 33.4493 90.4741 28.4543 90.4741 23.4103C90.4741 20.6189 89.2253 18.1214 86.1891 18.1214ZM82.2225 30.3397C81.1451 30.3397 80.5085 29.7275 80.5085 29.7275L81.1941 25.8588C81.6838 23.2634 83.0305 21.5494 84.4751 21.5494C85.7484 21.5494 86.1401 22.7247 86.1401 23.8265C86.1401 26.5199 84.5486 30.3397 82.2225 30.3397Z" fill="#494949"/>
<path d="M96.3988 12.1717C95.0766 12.1717 94.0237 13.2246 94.0237 14.5713C94.0237 15.7956 94.8073 16.6526 95.9826 16.6526H96.0315C97.3293 16.6526 98.4311 15.7711 98.4556 14.253C98.4556 13.0532 97.6476 12.1717 96.3988 12.1717Z" fill="#494949"/>
<path d="M90.596 33.1556H94.7341L97.5499 18.4644H93.3874L90.596 33.1556Z" fill="#494949"/>
<path d="M108.103 18.4401H105.214L105.361 17.7545C105.605 16.3344 106.438 15.0856 107.834 15.0856C108.568 15.0856 109.156 15.306 109.156 15.306L109.964 12.0494C109.964 12.0494 109.254 11.6821 107.711 11.6821C106.242 11.6821 104.773 12.0984 103.647 13.0533C102.226 14.2531 101.565 15.9916 101.247 17.7545L101.125 18.4401H99.1902L98.578 21.5742H100.512L98.3087 33.1803H102.447L104.65 21.5742H107.515L108.103 18.4401Z" fill="#494949"/>
<path d="M118.093 18.4644C118.093 18.4644 115.497 25.002 114.346 28.5768H114.297C114.224 27.426 113.269 18.4644 113.269 18.4644H108.911L111.408 31.9558C111.457 32.2497 111.433 32.4455 111.31 32.6414C110.821 33.5719 110.013 34.4778 109.058 35.1389C108.274 35.7021 107.393 36.0694 106.707 36.3142L107.858 39.8402C108.69 39.6688 110.453 38.9587 111.922 37.5875C113.808 35.8245 115.571 33.0822 117.358 29.3604L122.427 18.4644H118.093Z" fill="#494949"/>
</g>
<defs>
<clipPath id="clip0_93_401">
<rect width="123.009" height="46.4916" fill="white"/>
</clipPath>
</defs>
</svg>
