<svg width="93" height="47" viewBox="0 0 93 47" fill="none" xmlns="http://www.w3.org/2000/svg">
<g clipPath="url(#clip0_93_408)">
<path d="M0 34.284L9.54476 19.4321H1.1307C1.0594 19.0043 1.02884 18.5357 1.02884 18.0162C1.02884 17.517 1.0594 17.0586 1.1307 16.641H14.7501L14.9232 17.0994L5.30717 31.9819H14.3222C14.3935 32.4505 14.4241 32.9394 14.4241 33.4284C14.4241 33.8969 14.3935 34.3451 14.3222 34.773H0.173171L0 34.284Z" fill="#494949"/>
<path d="M27.5444 22.8244C27.5444 21.4289 27.1879 20.4713 26.485 19.9213C25.7821 19.3814 24.7533 19.1063 23.4087 19.1063C22.5836 19.1063 21.8094 19.1675 21.0963 19.2999C20.3731 19.4323 19.6804 19.5953 18.9877 19.8092C18.5395 19.035 18.3154 18.0979 18.3154 17.0181C19.1201 16.7634 19.9962 16.5597 20.9639 16.4171C21.9316 16.2745 22.8586 16.2032 23.755 16.2032C26.1081 16.2032 27.9009 16.7431 29.1335 17.8126C30.3559 18.8822 30.9772 20.6038 30.9772 22.9568V34.3046C30.1521 34.488 29.1539 34.6917 27.9722 34.8852C26.7906 35.089 25.5886 35.1806 24.3662 35.1806C23.2151 35.1806 22.1659 35.0788 21.2389 34.8649C20.312 34.6509 19.5174 34.3148 18.8655 33.836C18.2135 33.3674 17.7144 32.7664 17.3579 32.033C17.0014 31.2996 16.8282 30.4134 16.8282 29.3845C16.8282 28.3761 17.0319 27.4796 17.4496 26.7157C17.857 25.9517 18.4173 25.3099 19.1303 24.8108C19.8332 24.3015 20.6481 23.9246 21.5751 23.6801C22.4919 23.4356 23.4596 23.3032 24.4783 23.3032C25.2321 23.3032 25.8534 23.3235 26.3322 23.3541C26.811 23.3847 27.2184 23.4356 27.5546 23.4763V22.8244H27.5444ZM27.5444 26.2573C27.1879 26.2063 26.7397 26.1656 26.1998 26.1147C25.6599 26.0637 25.2015 26.0433 24.8246 26.0433C23.3577 26.0433 22.2474 26.3184 21.4834 26.8583C20.7194 27.3982 20.3323 28.2233 20.3323 29.3336C20.3323 30.0365 20.4648 30.5967 20.7194 30.994C20.9741 31.3913 21.3001 31.6969 21.6871 31.9108C22.0742 32.1247 22.5021 32.2571 22.9808 32.2979C23.4494 32.3488 23.8976 32.3692 24.3255 32.3692C24.8653 32.3692 25.4256 32.3386 26.0062 32.2775C26.5869 32.2164 27.0962 32.1349 27.5444 32.0126V26.2573Z" fill="#494949"/>
<path d="M34.7971 16.6418C35.0314 16.5908 35.2759 16.5603 35.5204 16.5399C35.7648 16.5195 36.0195 16.5093 36.2843 16.5093C36.5186 16.5093 36.7631 16.5195 37.028 16.5399C37.2826 16.5603 37.5373 16.601 37.7716 16.6418C37.7919 16.6927 37.8225 16.8353 37.8632 17.0798C37.8938 17.3243 37.9346 17.5891 37.9651 17.8743C37.9957 18.1596 38.0364 18.4244 38.067 18.6893C38.0975 18.9541 38.1179 19.1171 38.1179 19.1884C38.3522 18.8115 38.6374 18.4448 38.9634 18.0883C39.2894 17.7317 39.6866 17.4159 40.145 17.1307C40.6034 16.8455 41.1229 16.6214 41.7036 16.4584C42.2842 16.2954 42.9259 16.2139 43.6288 16.2139C44.6882 16.2139 45.6763 16.3871 46.5829 16.7436C47.4895 17.1002 48.2637 17.64 48.9156 18.3837C49.5675 19.1273 50.0667 20.0746 50.4334 21.2155C50.8001 22.3564 50.9835 23.7112 50.9835 25.2697C50.9835 28.3868 50.138 30.8214 48.4572 32.5735C46.7663 34.3256 44.3826 35.2118 41.2961 35.2118C40.7766 35.2118 40.2469 35.1812 39.707 35.1099C39.1671 35.0386 38.6884 34.9469 38.2911 34.8247V43.1369C38.0059 43.1878 37.7104 43.2184 37.3845 43.2387C37.0687 43.2591 36.7733 43.2693 36.5186 43.2693C36.264 43.2693 35.9686 43.2591 35.6528 43.2387C35.337 43.2184 35.0416 43.1776 34.7869 43.1369V16.6418H34.7971ZM38.3013 31.8095C38.7495 31.9725 39.2079 32.0947 39.6764 32.166C40.145 32.2373 40.7562 32.2679 41.5202 32.2679C42.3657 32.2679 43.15 32.1355 43.8529 31.8604C44.5558 31.5854 45.167 31.1677 45.6763 30.6075C46.1856 30.037 46.5829 29.324 46.8783 28.4683C47.1737 27.6126 47.3163 26.5838 47.3163 25.4124C47.3163 23.5278 46.97 22.0304 46.2773 20.9201C45.5846 19.8098 44.4437 19.2597 42.8648 19.2597C42.274 19.2597 41.7137 19.3616 41.1637 19.5755C40.6238 19.7894 40.1348 20.1052 39.7172 20.533C39.2894 20.9608 38.9532 21.4905 38.6884 22.1425C38.4235 22.7944 38.3013 23.5584 38.3013 24.4548V31.8095Z" fill="#494949"/>
<path d="M55.3433 19.3914H53.0411C52.9902 19.1978 52.9596 18.9839 52.9393 18.7394C52.9189 18.4949 52.9087 18.2505 52.9087 18.0162C52.9087 17.7819 52.9189 17.5374 52.9393 17.2929C52.9596 17.0485 53.0004 16.8244 53.0411 16.641H58.7761V34.7832C58.5215 34.8341 58.2261 34.8647 57.9103 34.885C57.5945 34.9054 57.2991 34.9156 57.0444 34.9156C56.8101 34.9156 56.5351 34.9054 56.2091 34.885C55.8933 34.8647 55.5979 34.8239 55.3433 34.7832V19.3914Z" fill="#494949"/>
<path d="M66.3039 26.5733C66.3549 28.5495 66.8642 30.0062 67.8421 30.9229C68.82 31.8397 70.2665 32.2981 72.1714 32.2981C73.842 32.2981 75.4412 32.0027 76.9488 31.4119C77.1424 31.7684 77.2952 32.1963 77.4072 32.7056C77.5295 33.2149 77.5906 33.714 77.6212 34.2132C76.847 34.5391 75.9913 34.7938 75.0542 34.9568C74.1272 35.1198 73.0882 35.2013 71.9575 35.2013C70.3073 35.2013 68.8913 34.967 67.7097 34.5086C66.5281 34.0502 65.5603 33.3983 64.7963 32.563C64.0324 31.7277 63.4721 30.7396 63.1156 29.5885C62.759 28.4476 62.5859 27.1947 62.5859 25.8195C62.5859 24.4749 62.759 23.2219 63.0952 22.0505C63.4314 20.879 63.9611 19.8706 64.6639 19.0047C65.3668 18.1491 66.2632 17.4564 67.3328 16.9572C68.4024 16.4479 69.6757 16.1932 71.1324 16.1932C72.3853 16.1932 73.4752 16.4072 74.4226 16.835C75.3699 17.2628 76.1543 17.8435 76.7961 18.5871C77.4276 19.3307 77.9166 20.2169 78.2425 21.2356C78.5685 22.2644 78.7417 23.3747 78.7417 24.5767C78.7417 24.9027 78.7315 25.2592 78.7009 25.6158C78.6805 25.9825 78.65 26.2983 78.6296 26.5529H66.3039V26.5733ZM75.2884 23.9554C75.2884 23.2932 75.1968 22.6617 75.0236 22.0607C74.8504 21.4597 74.5856 20.9402 74.2494 20.492C73.9031 20.0437 73.4753 19.6872 72.9455 19.4122C72.4158 19.1371 71.7843 19.0047 71.0509 19.0047C69.6146 19.0047 68.5144 19.4427 67.7402 20.3086C66.9763 21.1846 66.5077 22.3968 66.3447 23.9554H75.2884Z" fill="#494949"/>
<path d="M82.6126 16.641C82.8673 16.5901 83.1219 16.5595 83.3562 16.5391C83.5905 16.5188 83.835 16.5086 84.0998 16.5086C84.3545 16.5086 84.6194 16.5188 84.874 16.5391C85.1287 16.5595 85.3732 16.6003 85.5769 16.641C85.6482 16.9975 85.7195 17.4559 85.7908 18.0366C85.8621 18.6172 85.8927 19.1061 85.8927 19.5034C86.3918 18.6987 87.0437 18.006 87.8587 17.4152C88.6736 16.8244 89.7126 16.529 90.9859 16.529C91.1795 16.529 91.373 16.5391 91.5666 16.5493C91.7703 16.5595 91.9333 16.5799 92.0759 16.6003C92.1268 16.8142 92.1574 17.0383 92.1777 17.2726C92.1981 17.5069 92.2083 17.7513 92.2083 18.0162C92.2083 18.3014 92.1879 18.5968 92.1574 18.9024C92.1268 19.208 92.0759 19.5034 92.0351 19.7886C91.8416 19.7377 91.648 19.7173 91.4545 19.7173C91.2508 19.7173 91.098 19.7173 90.9757 19.7173C90.3442 19.7173 89.733 19.809 89.1524 19.9822C88.5717 20.1553 88.0522 20.4711 87.5938 20.9193C87.1354 21.3675 86.7687 21.9787 86.4937 22.7631C86.2186 23.5373 86.0862 24.5457 86.0862 25.7681V34.7832C85.8316 34.8341 85.5361 34.8647 85.2204 34.885C84.9046 34.9054 84.6092 34.9156 84.3545 34.9156C84.0998 34.9156 83.8044 34.9054 83.4887 34.885C83.1729 34.8647 82.8673 34.8239 82.5821 34.7832V16.641H82.6126Z" fill="#494949"/>
<path d="M62.107 5.96594H58.6843L61.1087 3.54155C60.9152 3.2767 60.7012 3.02204 60.4771 2.78775C60.2428 2.55346 59.9984 2.33954 59.7233 2.15619L57.2989 4.58057V1.15791C56.9832 1.10698 56.6572 1.07642 56.321 1.07642H56.3109C55.9747 1.07642 55.6487 1.10698 55.333 1.15791V4.58057L52.9086 2.15619C52.6437 2.34973 52.389 2.56365 52.1548 2.78775C51.9205 3.02204 51.7167 3.26652 51.5232 3.54155L53.9578 5.96594H50.5351C50.5351 5.96594 50.4536 6.60769 50.4536 6.94384C50.4536 7.28 50.4842 7.60597 50.5351 7.92175H53.9578L51.5334 10.3461C51.9103 10.8758 52.3789 11.3444 52.9187 11.7315L55.3431 9.30711V12.7298C55.6589 12.7807 55.9849 12.8113 56.321 12.8113H56.3312C56.6674 12.8113 56.9933 12.7807 57.3091 12.7298V9.30711L59.7335 11.7315C59.9984 11.538 60.253 11.324 60.4873 11.0999C60.7216 10.8657 60.9355 10.6212 61.1189 10.3461L58.6945 7.92175H62.1172C62.1681 7.60597 62.1987 7.28 62.1987 6.94384V6.93366C62.1885 6.60769 62.1681 6.28172 62.107 5.96594ZM57.7879 6.95403C57.7879 7.39205 57.7064 7.8097 57.5638 8.19679C57.1767 8.3394 56.7591 8.42089 56.321 8.42089C55.883 8.42089 55.4654 8.3394 55.0783 8.19679C54.9357 7.8097 54.8542 7.39205 54.8542 6.95403V6.94384C54.8542 6.50582 54.9357 6.08818 55.0783 5.70109C55.4654 5.55848 55.883 5.47699 56.321 5.47699C56.7591 5.47699 57.1767 5.55848 57.5638 5.70109C57.7064 6.08818 57.7879 6.50583 57.7879 6.95403Z" fill="#494949"/>
</g>
<defs>
<clipPath id="clip0_93_408">
<rect width="92.9832" height="46.4916" fill="white"/>
</clipPath>
</defs>
</svg>
